HIERARCHY
ROOT Hips
{
	OFFSET 0.00000 0.00000 0.00000
	CHANNELS 6 Xposition Yposition Zposition Zrotation Yrotation Xrotation 
	JOINT LHipJoint
	{
		OFFSET 0 0 0
		CHANNELS 3 Zrotation Yrotation Xrotation
		JOINT LeftHip
		{
			OFFSET 1.34019 -1.87553 0.90315
			CHANNELS 3 Zrotation Yrotation Xrotation
			JOINT LeftKnee
			{
				OFFSET 2.55316 -7.01474 0.00000
				CHANNELS 3 Zrotation Yrotation Xrotation
				JOINT LeftAnkle
				{
					OFFSET 2.64657 -7.27139 0.00000
					CHANNELS 3 Zrotation Yrotation Xrotation
					JOINT LeftToe
					{
						OFFSET 0.24207 -0.66507 2.14489
						CHANNELS 3 Zrotation Yrotation Xrotation
						End Site
						{
							OFFSET 0.00000 -0.00000 1.12451
						}
					}
				}
			}
		}
	}
	JOINT RHipJoint
	{
		OFFSET 0 0 0
		CHANNELS 3 Zrotation Yrotation Xrotation
		JOINT RightHip
		{
			OFFSET -1.28320 -1.87553 0.90315
			CHANNELS 3 Zrotation Yrotation Xrotation
			JOINT RightKnee
			{
				OFFSET -2.60484 -7.15674 0.00000
				CHANNELS 3 Zrotation Yrotation Xrotation
				JOINT RightAnkle
				{
					OFFSET -2.60296 -7.15159 0.00000
					CHANNELS 3 Zrotation Yrotation Xrotation
					JOINT RightToe
					{
						OFFSET -0.31082 -0.85398 2.28998
						CHANNELS 3 Zrotation Yrotation Xrotation
						End Site
						{
							OFFSET -0.00000 -0.00000 1.21611
						}
					}
				}
			}
		}
	}
	JOINT lowerback
	{
		OFFSET 0 0 0
		CHANNELS 3 Zrotation Yrotation Xrotation
		JOINT Chest
		{
			OFFSET -0.00160 2.05581 -0.15156
			CHANNELS 3 Zrotation Yrotation Xrotation
			JOINT Chest2
			{
				OFFSET 0.04594 2.06326 -0.01617
				CHANNELS 3 Zrotation Yrotation Xrotation
				JOINT lowerneck
				{
					OFFSET 0 0 0
					CHANNELS 3 Zrotation Yrotation Xrotation
					JOINT Neck
					{
						OFFSET 0.03753 1.73883 0.26751
						CHANNELS 3 Zrotation Yrotation Xrotation
						JOINT Head
						{
							OFFSET -0.09795 1.76129 -0.31794
							CHANNELS 3 Zrotation Yrotation Xrotation
							End Site
							{
								OFFSET -0.03611 1.79987 -0.13846
							}
						}
					}
				}
				JOINT LeftCollar
				{
					OFFSET 0 0 0
					CHANNELS 3 Zrotation Yrotation Xrotation
					JOINT LeftShoulder
					{
						OFFSET 3.30667 1.29205 -0.22445
CHANNELS 3 Zrotation Xrotation Yrotation
						JOINT LeftElbow
						{
OFFSET 0 -4.927850 -0.000000
CHANNELS 3 Zrotation Xrotation Yrotation
							JOINT LeftWrist
							{
OFFSET 0 -3.440520 0.000000
CHANNELS 3 Zrotation Xrotation Yrotation
								JOINT lhand
								{
									OFFSET 0 0 0
CHANNELS 3 Zrotation Xrotation Yrotation
									JOINT LFingers
									{
OFFSET 0 -0.654330 0.000000
CHANNELS 3 Zrotation Xrotation Yrotation
										End Site
										{
OFFSET 0 -0.527530 0.000000
										}
									}
								}
								JOINT LThumb
								{
OFFSET 0 0.000000 0.000000
CHANNELS 3 Zrotation Xrotation Yrotation
									End Site
									{
OFFSET 0 -0.535590 0.535590
									}
								}
							}
						}
					}
				}
				JOINT RightCollar
				{
					OFFSET 0 0 0
					CHANNELS 3 Zrotation Yrotation Xrotation
					JOINT RightShoulder
					{
						OFFSET -3.20032 1.49783 -0.27688
CHANNELS 3 Zrotation Xrotation Yrotation
						JOINT RightElbow
						{
OFFSET 0 -5.091810 -0.000000
CHANNELS 3 Zrotation Xrotation Yrotation
							JOINT RightWrist
							{
OFFSET 0 -3.498650 -0.000000
CHANNELS 3 Zrotation Xrotation Yrotation
								JOINT rhand
								{
									OFFSET 0 0 0
CHANNELS 3 Zrotation Xrotation Yrotation
									JOINT RFingers
									{
OFFSET 0 -0.666410 0.000000
CHANNELS 3 Zrotation Xrotation Yrotation
										End Site
										{
OFFSET 0 -0.537280 0.000000
										}
									}
								}
								JOINT RThumb
								{
OFFSET 0 0.000000 0.000000
CHANNELS 3 Zrotation Xrotation Yrotation
									End Site
									{
OFFSET 0 -0.545480 0.545480
									}
								}
							}
						}
					}
				}
			}
		}
	}
}
MOTION
Frames: 4
Frame Time: 0.008333333333333333
0.628900 18.333800 5.635800 -1.254300 3.369600 2.452700 0.000000 0.000000 0.000000 0.000000 0.000000 0.000000 0.000000 0.000000 0.000000 0.000000 0.000000 0.000000 0.000000 0.000000 0.000000 0.000000 0.000000 0.000000 14.428300 1.126300 -0.035400 -0.558700 -4.787700 13.304000 1.486100 -21.601700 -13.898200 -0.061000 1.594000 -4.384800 -0.923000 -0.342300 2.338500 1.573000 -0.456500 -0.479600 2.149300 -0.210000 -1.782700 4.723300 0.927300 -22.692100 -5.430400 0.872200 15.662600 -2.508700 0.096800 8.650500 -0.000000 -0.000000 0.000000 65.151700 8.595600 26.889600 11.254000 -18.676600 1.856400 14.415500 9.998000 -5.120300 0.000000 0.000000 0.000000 -7.125000 0.000000 0.000000 -10.169300 35.116600 -2.501200 -0.000000 -0.000000 0.000000 -69.432400 9.780200 -33.635400 -11.193500 -18.584300 -1.837100 -12.617000 8.999900 9.351600 0.000000 0.000000 0.000000 7.125000 0.000000 -0.000000 12.425200 39.263700 1.788600
0.628091 18.333858 5.635742 -1.245549 3.374192 2.456281 0.000000 0.000000 0.000000 0.000000 0.000000 0.000000 0.000000 0.000000 0.000000 0.000000 0.000000 0.000000 0.000000 0.000000 0.000000 0.000000 0.000000 0.000000 14.422581 1.135975 -0.045306 -0.560346 -4.794603 13.323668 1.486389 -21.606292 -13.912265 -0.061491 1.600296 -4.402158 -0.932964 -0.339354 2.333735 1.569910 -0.452861 -0.485665 2.151582 -0.208036 -1.786397 4.711892 0.919964 -22.673876 -5.418501 0.864806 15.681257 -2.503906 0.094143 8.653273 0.000000 0.000000 0.000000 65.157967 8.556177 26.919492 11.242823 -18.659531 1.852848 14.422691 10.016311 -5.099736 0.000000 0.000000 0.000000 -7.125000 0.000000 0.000000 -10.160376 35.096036 -2.504088 0.000000 0.000000 0.000000 -69.423938 9.811912 -33.524437 -11.210627 -18.610438 -1.842587 -12.638863 8.855348 9.451559 0.000000 0.000000 0.000000 7.125000 0.000000 0.000000 12.427944 39.365161 1.757379
0.627283 18.333916 5.635684 -1.236798 3.378784 2.459863 0.000000 0.000000 0.000000 0.000000 0.000000 0.000000 0.000000 0.000000 0.000000 0.000000 0.000000 0.000000 0.000000 0.000000 0.000000 0.000000 0.000000 0.000000 14.416863 1.145651 -0.055213 -0.561992 -4.801505 13.343337 1.486678 -21.610884 -13.926331 -0.061982 1.606592 -4.419516 -0.942928 -0.336408 2.328969 1.566819 -0.449222 -0.491730 2.153863 -0.206072 -1.790094 4.700484 0.912628 -22.655652 -5.406602 0.857413 15.699915 -2.499111 0.091486 8.656045 0.000000 0.000000 0.000000 65.164235 8.516754 26.949385 11.231646 -18.642462 1.849295 14.429883 10.034622 -5.079173 0.000000 0.000000 0.000000 -7.125000 0.000000 0.000000 -10.151451 35.075473 -2.506976 0.000000 0.000000 0.000000 -69.415475 9.843624 -33.413475 -11.227753 -18.636575 -1.848075 -12.660727 8.710796 9.551518 0.000000 0.000000 0.000000 7.125000 0.000000 0.000000 12.430687 39.466621 1.726158
0.626474 18.333973 5.635627 -1.228047 3.383376 2.463444 0.000000 0.000000 0.000000 0.000000 0.000000 0.000000 0.000000 0.000000 0.000000 0.000000 0.000000 0.000000 0.000000 0.000000 0.000000 0.000000 0.000000 0.000000 14.411144 1.155326 -0.065119 -0.563639 -4.808408 13.363005 1.486966 -21.615476 -13.940396 -0.062473 1.612888 -4.436873 -0.952892 -0.333462 2.324204 1.563729 -0.445583 -0.497795 2.156145 -0.204108 -1.793790 4.689075 0.905292 -22.637427 -5.394703 0.850019 15.718572 -2.494317 0.088829 8.658818 0.000000 0.000000 0.000000 65.170502 8.477330 26.979277 11.220469 -18.625393 1.845743 14.437074 10.052933 -5.058609 0.000000 0.000000 0.000000 -7.125000 0.000000 0.000000 -10.142527 35.054909 -2.509864 0.000000 0.000000 0.000000 -69.407013 9.875336 -33.302512 -11.244880 -18.662713 -1.853562 -12.682590 8.566245 9.651476 0.000000 0.000000 0.000000 7.125000 0.000000 0.000000 12.433431 39.568082 1.694937
